<?xml version="1.0" encoding="utf-8"?>
<!-- Generator: Adobe Illustrator 22.0.1, SVG Export Plug-In . SVG Version: 6.00 Build 0)  -->
<svg version="1.1" id="Capa_1" xmlns="http://www.w3.org/2000/svg" xmlns:xlink="http://www.w3.org/1999/xlink" x="0px" y="0px"
	 viewBox="0 0 512 512" style="enable-background:new 0 0 512 512;" xml:space="preserve">
<style type="text/css">
	.st0{fill:#D6A354;}
</style>
<g>
	<g>
		<path class="st0" d="M406.5,0.8c-11.6-2.3-23.4,0.2-33.3,7c-10,6.9-17,17.6-19,29.5l-20.9,118.4c-6.2-8-15-13.9-25.3-16.1
			c-11.9-2.5-24-0.2-34,6.6c-2.8,1.9-5.2,4-7.5,6.3c-5.6-12.7-16.9-22.7-31-25.7c-11.9-2.5-24-0.2-34,6.6c-2.8,1.9-5.2,4-7.5,6.3
			c-5.6-12.7-16.9-22.7-31-25.7h0c-11.9-2.5-24-0.2-34.1,6.6c-10.1,6.8-16.8,17.1-18.9,29.1l-10,56.7c0,0,0,0,0,0l-13.7,77.9
			c-0.7,4.1,2,8,6.1,8.7c0.4,0.1,0.9,0.1,1.3,0.1c3.6,0,6.7-2.6,7.4-6.2l8-45.2c6.7,8.5,16.2,14.1,27,16c2.6,0.5,5.2,0.7,7.8,0.7
			c9,0,17.8-2.8,25.3-8c2.4-1.7,4.6-3.5,6.5-5.6c5.8,13.2,17.9,23.1,32.9,25.7c2.6,0.5,5.1,0.7,7.7,0.7c7.7,0,15.2-2,21.8-5.7
			c1.8,5.1,4.3,10,7.5,14.6c9.1,13.1,22.8,21.8,38.5,24.6l27.1,4.8l-8.5,48.2c-0.7,4.1,2,8,6.1,8.7c0.4,0.1,0.9,0.1,1.3,0.1
			c3.6,0,6.7-2.6,7.4-6.2l9.8-55.5c0.7-4.1-2-8-6.1-8.7l-34.5-6.1c-11.8-2.1-22-8.6-28.9-18.4c-6.9-9.8-9.5-21.7-7.4-33.4l2.3-13.1
			l73.7,13c0,0,0,0,0.1,0c0,0,0.1,0,0.1,0l65.1,11.5l-42,238c-1.1,6.3-7.1,10.5-13.5,9.4L112,457.3c-3.1-0.5-5.7-2.2-7.5-4.8
			c-1.8-2.5-2.5-5.6-1.9-8.7l7.2-41c0.3-2-0.1-4-1.2-5.6s-2.9-2.7-4.8-3.1l-9-1.6c-6.6-1.2-11-7.5-9.8-14l10.9-62
			c0.7-4.1-2-8-6.1-8.7c-4.1-0.7-8,2-8.7,6.1l-10.9,62c-2.6,14.7,7.3,28.8,22,31.4l1.6,0.3l-5.9,33.6c-1.2,7,0.3,14.1,4.4,19.9
			c4.1,5.8,10.2,9.7,17.2,10.9l224.2,39.5c1.6,0.3,3.1,0.4,4.6,0.4c12.7,0,23.9-9.1,26.2-22l65.3-370.5c0.7-4.1-2-8-6.1-8.7
			c-4.1-0.7-8,2-8.7,6.1l-20.8,117.8l-57.8-10.2l2-11.2c0,0,0-0.1,0-0.1L369,39.9c1.4-7.9,6.1-15.1,12.8-19.8
			c6.5-4.5,14.3-6.1,21.9-4.7c15.6,3.1,26,18.2,23.2,33.9l-6.7,37.9c-0.7,4.1,2,8,6.1,8.7c4.1,0.7,8-2,8.7-6.1l6.7-37.9
			C445.8,28.4,430,5.4,406.5,0.8z M182.4,163.3l-9.9,55.9c-2.8,15.9-18.1,26.6-34,23.8c-7.7-1.4-14.4-5.6-18.9-12.1
			c-4.5-6.4-6.2-14.2-4.9-21.9l6-34.3c0,0,0,0,0,0l4-22.5c1.4-7.9,5.8-14.7,12.5-19.2c4.9-3.3,10.5-5,16.3-5c2.1,0,4.1,0.2,6.2,0.7
			h0C175.1,131.9,185.2,147.5,182.4,163.3z M327.5,188.9l-5.8,33l-70-12.3c-3-0.5-6,0.1-8.5,1.9c-2.5,1.7-4.2,4.4-4.7,7.3l-2.9,16.7
			c-0.8,4.7-1.1,9.5-0.8,14.1c-6.6,5.4-15.2,7.7-23.6,6.2c-14.1-2.5-24.2-14.6-24.2-28.8c0-1.7,0.2-3.4,0.5-5.1l10-56.7
			c1.4-7.9,5.8-14.7,12.5-19.2c6.7-4.5,14.7-6,22.5-4.4c15.2,3.2,25.3,18.7,22.6,34.5l-1.9,10.8c-0.7,4.1,2,8,6.1,8.7
			c4.1,0.7,8-2,8.7-6.1l1.9-10.6c0,0,0,0,0-0.1c0,0,0-0.1,0-0.1l0.1-0.7c1.4-7.9,5.8-14.7,12.5-19.2c6.7-4.5,14.7-6,22.5-4.4
			C320.1,157.5,330.3,173.1,327.5,188.9z"/>
	</g>
</g>
<g>
	<g>
		<path class="st0" d="M187.6,301.9l-7.3-1.3l4.1-10.7c1.1-8-11.9-9.2-13.6-5l-5.1,13.2l-10.6-1.9l4.1-10.6c1.4-8.1-12-9.2-13.6-5.1
			l-5,13.2l-9.7-1.7c-5.7-1-8.5,11.4-2.3,12.5l7.4,1.3l-4,10.3l-9.6-1.7c-5.8-1-8.4,11.4-2.3,12.5l7.3,1.3l-4.7,12.3
			c-0.7,3.9,5.1,8.1,11.1,6.6c1.4-0.4,2.3-0.9,2.7-1.7l5.6-14.6l10.6,1.9l-4.7,12.3c-0.7,4,5.5,8.1,11.1,6.6c1.4-0.4,2.2-1,2.6-1.7
			l5.6-14.5l9.6,1.7c1.2,0.2,2.4-0.2,3.5-1.2c3.8-3.3,2.7-10.5-1.2-11.2l-7.3-1.3l4-10.3l9.6,1.7c1.2,0.2,2.3-0.2,3.5-1.2
			C192.4,309.9,191.5,302.6,187.6,301.9z M157.1,320.5l-10.6-1.9l4-10.3l10.6,1.9L157.1,320.5z"/>
	</g>
</g>
<g>
	<g>
		<path class="st0" d="M213.9,287.7l-15.2,5.9c-7.2,2.7-4.1,15,2.7,12l3.3-1.3l-9.3,52.9c-0.3,1.6,0.3,3,1.7,4.1
			c1.4,1.1,3.3,1.9,5.5,2.3c2.2,0.4,4.2,0.3,5.9-0.3c1.7-0.6,2.8-1.7,3-3.3l11.7-66.1C224.1,289.6,217.3,286.3,213.9,287.7z"/>
	</g>
</g>
<g>
	<g>
		<path class="st0" d="M192.2,398.8c2-11.1-3.4-17.8-16.1-20l-18.3-3.2c-1.5-0.3-2.8-0.1-4,0.4c-1.2,0.5-1.9,1.4-2.1,2.6l-10.9,61.6
			c-0.2,1,0.2,2,1,2.9c0.9,0.9,2.1,1.5,3.7,1.8l20.1,3.5c5.8,1,10.7,0.2,14.7-2.3c4-2.6,6.6-7.4,7.8-14.4l0.4-2
			c0.8-4.4,0.6-7.9-0.7-10.5c-1.2-2.6-3.4-4.8-6.3-6.6C187.2,411.1,190.8,406.5,192.2,398.8z M176.3,426.9l-0.3,1.5
			c-1.2,6.9-4.9,9.8-11,8.7l-10.7-1.9l3.9-21.9l10.7,1.9c3,0.5,5.2,1.7,6.4,3.6C176.6,420.7,176.9,423.4,176.3,426.9z M179.5,398.8
			c-0.4,2.5-1.4,4.4-3,5.6c-1.6,1.2-3.6,1.6-6,1.2l-10.6-1.9l2.8-16.1l10.5,1.9c2.4,0.4,4.1,1.5,5.3,3.1
			C179.6,394.2,179.9,396.3,179.5,398.8z"/>
	</g>
</g>
<g>
	<g>
		<path class="st0" d="M228.4,388l-18.8-3.3c-1.1-0.2-2.1,0-3,0.6c-0.9,0.6-1.4,1.4-1.6,2.5l-10.9,61.6c-0.2,1.2,0.2,2.3,1.3,3.2
			c1.1,0.9,2.5,1.5,4.1,1.8c1.7,0.3,3.2,0.2,4.5-0.3c1.3-0.5,2.1-1.3,2.3-2.5l4.4-24.7l8,1.4l8.8,28.5c0.7,2.1,1.9,3.4,3.7,3.7
			c1.8,0.3,3.7,0,5.6-1.1c1.9-1.1,3-2.4,3.2-4c0.1-0.6,0-1.2-0.2-1.6l-8.3-25.2c4-0.5,7.4-2.1,10.2-4.8c2.8-2.8,4.7-6.7,5.6-11.9
			C249.6,398.6,243.3,390.7,228.4,388z M234.8,410.8c-1.2,6.7-5.1,9.4-11.9,8.3l-10.4-1.8L216,397l10.4,1.8
			C233.2,400,236,404,234.8,410.8z"/>
	</g>
</g>
<g>
	<g>
		<path class="st0" d="M296.3,405.4c-3.4-4.2-8.5-6.9-15.3-8.1c-6.8-1.2-12.4-0.4-17.1,2.4c-4.6,2.8-7.6,7.9-8.9,15.4l-4.7,26.4
			c-1.3,7.5-0.3,13.4,3.1,17.5c3.4,4.2,8.5,6.9,15.2,8.1c6.8,1.2,12.5,0.4,17.1-2.4c4.7-2.8,7.6-7.9,9-15.4l4.7-26.4
			C300.8,415.4,299.7,409.6,296.3,405.4z M287.1,420.8l-4.7,26.4c-1.3,7.3-5.2,10.3-11.9,9.1c-6.6-1.2-9.2-5.4-7.9-12.6l4.7-26.4
			c1.3-7.3,5.2-10.3,11.8-9.2C285.7,409.3,288.4,413.5,287.1,420.8z"/>
	</g>
</g>
</svg>
