<svg id="Слой_1" data-name="Слой 1" xmlns="http://www.w3.org/2000/svg" viewBox="0 0 261.04 238.56"><defs><style>.cls-1{fill:#d0a158;}</style></defs><title>Безымянный-1</title><path class="cls-1" d="M131.84,1.3,241.57,111l5.61-5.61L261,119.28l-13.86,13.86-5.61-5.61-54.63,54.6h44.71l-3.72,3.71H31.75L28,182.13H74.1l-54.63-54.6-5.61,5.61L0,119.28l13.86-13.86L19.47,111l111-111Zm-99.78,223H227.93l2.73,2.72v1H141.05l-10.54,10.54L120,228H28l3.72-3.71Zm98.45,9,5.3-5.3H125.23ZM244.18,113.67l5.61,5.61-5.61,5.61,3,3,8.59-8.62-8.59-8.62Zm-5.25,11.22-5.61-5.61,5.61-5.61L130.51,5.24,22.11,113.67l5.61,5.61-5.61,5.61,57.23,57.24h21.4v-6.72h4.71v-6.72h7v-5.47l36.17-13.89v17.26l-5.41,2.1h12.41v6.72h4.71v6.72h21.4Zm2.64-8.61-3,3,3,3,3-3ZM16.84,124.89l-5.61-5.61,5.61-5.61-3-3-8.62,8.62,8.62,8.62Zm5.64-5.61-3-3-3,3,3,3Zm93.66,32.91,8.64-3.31V126.6l20.1-7.74v-9.33l-20.1,7.74v-13l20.1-7.71V87.25l-28.74,11Zm.36,3.83-4.08,1.56V95.73l36.17-13.89V99.13c-6.69,2.55-13.41,5.13-20.1,7.71v5l20.1-7.72v17.27l-20.1,7.74v22.28Zm-.36-71.32,28.74-11V67h7V64H140.54L142,62.79a18.09,18.09,0,0,0,4.48-6,17.35,17.35,0,0,0,1.58-7.29,17.53,17.53,0,1,0-35.06,0,17.35,17.35,0,0,0,1.59,7.29,17.69,17.69,0,0,0,4.48,6L120.5,64H109.16v3h28.69l-21.71,8.33ZM126.74,171l18.14-6.94v-9.33l-28.74,11v6.63h-7v3h42.72v-3H123.17Zm29.85,11.12v-3H104.46v3ZM146.66,77,112.42,90.09V72.82l5.42-2.07H105.45V60.32h6.8l-.25-.4c-.29-.51-.54-1-.8-1.58A22.27,22.27,0,0,1,109.76,54a21.93,21.93,0,0,1-.48-4.51,21,21,0,0,1,1.61-8.13,21.14,21.14,0,0,1,19.62-13.1,21.53,21.53,0,0,1,8.13,1.59,21.28,21.28,0,0,1,13.1,19.64,20,20,0,0,1-.48,4.51,20.94,20.94,0,0,1-1.42,4.31c-.26.54-.54,1.07-.82,1.58l-.23.4h6.8V70.75h-7v5.47Zm-10.43,67.69,8.65-3.34V132l-8.65,3.35Zm10.43,0L132.52,150V132.77c5.36-2.06,10.71-4.13,16.07-6.17v17.26Z"/><path class="cls-1" d="M49.72,216.77v-2h2.75l3.46-3.68v-11.6L52.47,196H49.72v-2.19H46.94V196H44.16l-3.45,3.45v11.6l3.45,3.68h2.78v2Zm0-4.6V198.68h1.59l1.84,1.84v9.61l-1.87,2Zm-4.39-13.49h1.61v13.49H45.35l-1.87-2v-9.61Zm19.61,7.77v-9.84h3.29l1.84,1.87v6l-1.87,2Zm4.42-12.62H60.52v2.7h2.81v.19l-1.17.71v19.34h2.78v-7.52h4.45l3.52-3.71v-8.22ZM85.44,208h-4l1.7-11.4h.57Zm-6.5-11.4h2.39v.2l-1.17.71-2.8,19.25h2.8l.88-6h4.79l.88,6h2.81l-3.38-22.94h-7.2Zm14,.09h2.75v.22l-1.14.65v19.2h2.78v-10.1h5.19v10.1h2.78V193.92h-2.78V204H97.37V193.92H93Zm25.51,9.75h-2.86l-1.9-2V193.89H111v11.65l3.48,3.71h4.06v7.52h2.8V193.83h-2.8Zm7.25,10.32h2.81l.88-6h4.79l.88,6h2.81l-3.41-22.94h-5.38Zm8.08-8.76h-4l1.7-11.4h.56Zm11.71,8.76,3.6-11.26,2.1-8h.08l-.45,8.25v11h2.78V193.92H149.9l-2.61,8.19L145,211.58h-.08l.42-9.61v-8.05h-2.78v22.85Zm.62-24.61H150l1.7-1.87-1.44-1.7-1.25,1h-1.84l-1.16-1-1.53,1.7Zm16.39,13.75h2.61l1.95,1.93v4.36L165.34,214h-1.92l-1.7-1.84v-3h-2.78v4.14l3.29,3.51h4.33l3.35-3.51v-6.75l-2.3-2.27,1.68-2v-5.07l-3.18-3.43h-3.88l-3.12,3.43v2.52h2.8V198.4l1.48-1.79H165l1.53,1.79v2.77l-1.62,1.93h-2.32Zm16.3,10.86,3.57-11.26,2.1-8h.11l-.48,8.25v11h2.8V193.92h-3.77l-2.6,8.19-2.27,9.47h-.09l.43-9.61v-8.05h-2.78v22.85Zm17,0v-10.1H201v10.1h2.78V193.92H201V204h-5.18V193.92H193v22.85Zm16.81-20.07h6.57V194h-9.35v22.82h2.78Z"/></svg>