<?xml version="1.0" encoding="utf-8"?>
<!-- Generator: Adobe Illustrator 22.0.1, SVG Export Plug-In . SVG Version: 6.00 Build 0)  -->
<svg version="1.1" id="Capa_1" xmlns="http://www.w3.org/2000/svg" xmlns:xlink="http://www.w3.org/1999/xlink" x="0px" y="0px"
	 viewBox="0 0 512 512" style="enable-background:new 0 0 512 512;" xml:space="preserve">
<style type="text/css">
	.st0{fill:#D6A354;}
</style>
<g>
	<g>
		<path class="st0" d="M162.4,127.6c-1.7-1.4-4-2.3-6.4-2.3c-5.5,0-10,4.5-10,10c0,4.7,3.3,8.7,7.6,9.7c0.8,0.2,1.6,0.3,2.4,0.3
			c5.5,0,10-4.5,10-10C166,132.2,164.6,129.5,162.4,127.6z"/>
	</g>
</g>
<g>
	<g>
		<path class="st0" d="M315.3,171c-1.2-3.6-4.3-6.3-8.1-6.8L278,160L265,133.5c-1.7-3.4-5.2-5.6-9-5.6c0,0,0,0,0,0
			c-3.8,0-7.3,2.2-9,5.6L234,160l-29.2,4.2c-3.8,0.5-6.9,3.2-8.1,6.8c-1.2,3.6-0.2,7.6,2.5,10.3l21.1,20.6l-5,29.1
			c-0.6,3.8,0.9,7.5,4,9.8c3.1,2.2,7.2,2.5,10.5,0.8l26.1-13.7l26.1,13.7c3.3,1.8,7.4,1.5,10.5-0.8c3.1-2.2,4.6-6,4-9.8l-5-29.1
			l21.1-20.6C315.5,178.6,316.5,174.6,315.3,171z M273.9,191.3c-2.4,2.3-3.4,5.6-2.9,8.9l2.5,14.3l-12.9-6.8c-2.9-1.5-6.4-1.5-9.3,0
			l-12.9,6.8l2.5-14.3c0.6-3.2-0.5-6.6-2.9-8.9l-10.4-10.1L242,179c3.3-0.5,6.1-2.5,7.5-5.5l6.4-13l6.4,13c1.5,3,4.3,5,7.5,5.5
			l14.4,2.1L273.9,191.3z"/>
	</g>
</g>
<g>
	<g>
		<path class="st0" d="M256,65.3c-50.2,0-80.6,31.4-81.3,31.8c-4.1,3.7-4.4,10-0.7,14.1c3.7,4.1,10,4.4,14.1,0.7
			c20-18.1,43.8-26.6,67.8-26.6c55.1,0,100,44.9,100,100c0,55-44.6,100-100,100c-56.6,0-102.7-47.3-99.9-105.1
			c0.1-1.7,0.2-3.4,0.4-5.1c0.5-5.5-3.5-10.4-9-10.9c-5.5-0.5-10.4,3.5-10.9,9c-0.2,2-0.3,4-0.5,6C132.8,248.4,188,305.3,256,305.3
			c66.7,0,120-54.3,120-120C376,119.1,322.2,65.3,256,65.3z"/>
	</g>
</g>
<g>
	<g>
		<path class="st0" d="M439.2,179.2l-27.6-35.6l6.1-44.6c0.6-4.5-1.9-8.9-6.1-10.6l-41.7-17l-17-41.7c-1.7-4.2-6.1-6.8-10.6-6.1
			l-44.6,6.1L262.1,2.1c-3.6-2.8-8.6-2.8-12.3,0l-35.6,27.6l-44.6-6.1c-4.5-0.6-8.9,1.9-10.6,6.1l-17,41.7l-41.7,17
			c-4.2,1.7-6.7,6.1-6.1,10.6l6.1,44.6l-27.6,35.6c-2.8,3.6-2.8,8.6,0,12.3l27.6,35.6l-6.1,44.6c-0.6,4.5,1.9,8.9,6.1,10.6l41.7,17
			l17,41.7c1.7,4.2,6.1,6.8,10.6,6.1l16.3-2.2V502c0,4,2.4,7.7,6.2,9.2c3.7,1.5,8,0.7,10.9-2.2l52.9-52.9l52.9,52.9
			c2.9,2.9,7.2,3.7,10.9,2.2c3.7-1.5,6.2-5.2,6.2-9.2V344.8l16.3,2.2c4.5,0.6,8.9-1.9,10.6-6.1l17-41.7l41.7-17
			c4.2-1.7,6.7-6.1,6.1-10.6l-6.1-44.6l27.6-35.6C442,187.8,442,182.8,439.2,179.2z M306,477.9L306,477.9l-42.9-42.9
			c-3.9-3.9-10.2-3.9-14.1,0L206,477.9V342.1l8.3-1.1l35.6,27.6c1.8,1.4,4,2.1,6.1,2.1c2.2,0,4.3-0.7,6.1-2.1l35.6-27.6l8.3,1.1
			L306,477.9L306,477.9z M393.2,218.1c-1.6,2.1-2.4,4.8-2,7.5l5.6,41.1l-38.4,15.7c-2.5,1-4.5,3-5.5,5.5l-15.7,38.4l-17.4-2.4
			c-1.6-0.7-3.3-0.9-5.2-0.7l-18.5-2.5c-2.7-0.4-5.4,0.4-7.5,2L256,348l-32.8-25.4c-2.1-1.6-4.8-2.4-7.5-2l-41.1,5.6L159,287.8
			c-1-2.5-3-4.5-5.5-5.5l-38.4-15.7l5.6-41.1c0.4-2.7-0.4-5.4-2-7.5l-25.4-32.8l25.4-32.8c1.6-2.1,2.4-4.8,2-7.5l-5.6-41.1
			l38.4-15.7c2.5-1,4.5-3,5.5-5.5l15.7-38.4l41.1,5.6c2.7,0.4,5.4-0.4,7.5-2L256,22.7l32.8,25.4c2.1,1.6,4.8,2.4,7.5,2l41.1-5.6
			L353,82.8c1,2.5,3,4.5,5.5,5.5l38.4,15.7l-5.6,41.1c-0.4,2.7,0.4,5.4,2,7.5l25.4,32.8L393.2,218.1z"/>
	</g>
</g>
</svg>
