<svg width="110" height="35" viewBox="0 0 110 35" fill="none" xmlns="http://www.w3.org/2000/svg">
<path d="M75.0041 26.1888C75.0041 26.5272 74.9872 26.8148 74.9533 27.0517C74.9308 27.2773 74.8913 27.469 74.8349 27.627C74.7785 27.7736 74.7052 27.8807 74.615 27.9484C74.536 28.0161 74.4401 28.0499 74.3273 28.0499H64.2944C63.9222 28.0499 63.6064 27.9428 63.3469 27.7285C63.0988 27.5029 62.9747 27.1419 62.9747 26.6457V6.76592C62.9747 6.65312 63.0086 6.55161 63.0762 6.46138C63.1552 6.37114 63.2793 6.29783 63.4485 6.24143C63.6177 6.18503 63.8432 6.13992 64.1252 6.10608C64.4185 6.07224 64.7794 6.05532 65.208 6.05532C65.6479 6.05532 66.0089 6.07224 66.2908 6.10608C66.5728 6.13992 66.7984 6.18503 66.9676 6.24143C67.1368 6.29783 67.2552 6.37114 67.3229 6.46138C67.4019 6.55161 67.4413 6.65312 67.4413 6.76592V24.3785H74.3273C74.4401 24.3785 74.536 24.4124 74.615 24.48C74.7052 24.5364 74.7785 24.6379 74.8349 24.7846C74.8913 24.9199 74.9308 25.106 74.9533 25.3429C74.9872 25.5685 75.0041 25.8505 75.0041 26.1888Z" fill="#136EF5"/>
<path d="M90.2311 27.5254C90.2311 27.6834 90.1747 27.8074 90.0619 27.8977C89.9491 27.9879 89.7687 28.0499 89.5205 28.0838C89.2837 28.1289 88.9284 28.1514 88.4546 28.1514C87.9471 28.1514 87.5749 28.1289 87.338 28.0838C87.1124 28.0499 86.9489 27.9879 86.8473 27.8977C86.7571 27.8074 86.712 27.6834 86.712 27.5254V26.3242C86.0916 26.9897 85.381 27.5085 84.5802 27.8807C83.7907 28.253 82.9109 28.4391 81.9409 28.4391C81.14 28.4391 80.4012 28.3319 79.7245 28.1176C79.059 27.9146 78.4781 27.61 77.9818 27.204C77.4968 26.7866 77.119 26.2734 76.8483 25.6644C76.5776 25.0553 76.4422 24.3447 76.4422 23.5326C76.4422 22.6528 76.6114 21.8914 76.9498 21.2485C77.2994 20.5943 77.8126 20.0586 78.4894 19.6412C79.1774 19.2126 80.029 18.8968 81.0441 18.6938C82.0593 18.4907 83.238 18.3892 84.5802 18.3892H86.0522V17.4756C86.0522 17.0019 86.0014 16.5902 85.8999 16.2405C85.8096 15.8796 85.6517 15.5807 85.4262 15.3438C85.2118 15.1069 84.9186 14.9321 84.5464 14.8193C84.1854 14.7065 83.7343 14.6501 83.1929 14.6501C82.4823 14.6501 81.845 14.7291 81.281 14.887C80.7283 15.0449 80.2377 15.2197 79.8091 15.4115C79.3805 15.6032 79.0195 15.7781 78.7263 15.936C78.4443 16.0939 78.213 16.1728 78.0326 16.1728C77.9085 16.1728 77.7957 16.1334 77.6942 16.0544C77.604 15.9755 77.525 15.8627 77.4573 15.716C77.4009 15.5694 77.3558 15.3889 77.322 15.1746C77.2881 14.9603 77.2712 14.7235 77.2712 14.464C77.2712 14.1144 77.2994 13.838 77.3558 13.635C77.4122 13.432 77.5194 13.2515 77.6773 13.0936C77.8352 12.9244 78.1115 12.7439 78.5063 12.5522C78.9011 12.3492 79.3635 12.1631 79.8937 11.9939C80.4238 11.8247 80.999 11.6893 81.6194 11.5878C82.251 11.475 82.8996 11.4186 83.5651 11.4186C84.7494 11.4186 85.7589 11.5371 86.5936 11.7739C87.4395 11.9995 88.1332 12.3548 88.6746 12.8398C89.216 13.3135 89.6108 13.9283 89.8589 14.684C90.1071 15.4397 90.2311 16.3364 90.2311 17.3741V27.5254ZM86.0522 21.0624H84.4279C83.7399 21.0624 83.1534 21.1132 82.6684 21.2147C82.1834 21.3162 81.7886 21.4685 81.484 21.6715C81.1795 21.8745 80.9539 22.1227 80.8073 22.4159C80.6719 22.6979 80.6043 23.025 80.6043 23.3972C80.6043 24.0289 80.8016 24.5252 81.1964 24.8861C81.6025 25.247 82.1608 25.4275 82.8714 25.4275C83.4692 25.4275 84.0162 25.2752 84.5125 24.9707C85.0201 24.6661 85.5333 24.2206 86.0522 23.6341V21.0624Z" fill="#136EF5"/>
<path d="M109.688 19.7258C109.688 21.0681 109.541 22.2749 109.248 23.3465C108.955 24.418 108.532 25.3316 107.979 26.0873C107.426 26.843 106.744 27.4239 105.932 27.83C105.131 28.236 104.217 28.4391 103.191 28.4391C102.683 28.4391 102.21 28.3883 101.77 28.2868C101.33 28.1966 100.907 28.0443 100.501 27.83C100.106 27.6157 99.7114 27.345 99.3166 27.0179C98.9331 26.6908 98.5383 26.296 98.1323 25.8335V27.4747C98.1323 27.5988 98.0984 27.7059 98.0308 27.7961C97.9744 27.8751 97.8728 27.9428 97.7262 27.9992C97.5909 28.0556 97.4048 28.095 97.1679 28.1176C96.931 28.1402 96.6434 28.1514 96.305 28.1514C95.9554 28.1514 95.6621 28.1402 95.4252 28.1176C95.1997 28.095 95.0135 28.0556 94.8669 27.9992C94.7316 27.9428 94.6357 27.8751 94.5793 27.7961C94.5229 27.7059 94.4947 27.5988 94.4947 27.4747V5.22629C94.4947 5.1135 94.5285 5.01199 94.5962 4.92175C94.6639 4.83152 94.7767 4.7582 94.9346 4.70181C95.1038 4.63413 95.3237 4.58337 95.5944 4.54954C95.8651 4.5157 96.2092 4.49878 96.6265 4.49878C97.0438 4.49878 97.3878 4.5157 97.6585 4.54954C97.9292 4.58337 98.1435 4.63413 98.3015 4.70181C98.4706 4.7582 98.5891 4.83152 98.6568 4.92175C98.7244 5.01199 98.7583 5.1135 98.7583 5.22629V13.5673C99.1418 13.1838 99.5253 12.8567 99.9088 12.586C100.292 12.3153 100.676 12.0954 101.059 11.9262C101.443 11.7457 101.838 11.616 102.244 11.5371C102.65 11.4581 103.078 11.4186 103.529 11.4186C104.646 11.4186 105.594 11.6442 106.372 12.0954C107.15 12.5353 107.782 13.1331 108.267 13.8888C108.763 14.6445 109.124 15.5299 109.35 16.5451C109.575 17.5489 109.688 18.6092 109.688 19.7258ZM105.272 20.0304C105.272 19.3874 105.221 18.7671 105.12 18.1693C105.03 17.5715 104.866 17.0413 104.629 16.5789C104.392 16.1164 104.082 15.7499 103.699 15.4792C103.326 15.1972 102.853 15.0562 102.277 15.0562C101.995 15.0562 101.719 15.0957 101.448 15.1746C101.178 15.2536 100.896 15.3889 100.602 15.5807C100.32 15.7724 100.027 16.0206 99.7226 16.3251C99.4181 16.6297 99.0966 17.0075 98.7583 17.4587V22.4667C99.3561 23.2337 99.9257 23.8202 100.467 24.2263C101.02 24.621 101.595 24.8184 102.193 24.8184C102.745 24.8184 103.214 24.6774 103.597 24.3954C103.981 24.1135 104.296 23.7469 104.545 23.2957C104.804 22.8445 104.99 22.3313 105.103 21.7561C105.216 21.1808 105.272 20.6056 105.272 20.0304Z" fill="#136EF5"/>
<path d="M24.5688 7.98408C24.5688 8.32246 24.5518 8.61008 24.518 8.84694C24.4954 9.07253 24.4503 9.253 24.3826 9.38835C24.3263 9.5237 24.2586 9.62522 24.1796 9.69289C24.1007 9.76057 24.0104 9.7944 23.9089 9.7944H16.7522V15.6822H23.469C23.5705 15.6822 23.6608 15.7104 23.7397 15.7668C23.8187 15.8232 23.8864 15.9191 23.9428 16.0544C24.0104 16.1898 24.0555 16.3702 24.0781 16.5958C24.1119 16.8214 24.1289 17.1034 24.1289 17.4418C24.1289 17.7801 24.1119 18.0621 24.0781 18.2877C24.0555 18.5133 24.0104 18.6994 23.9428 18.846C23.8864 18.9927 23.8187 19.0998 23.7397 19.1675C23.6608 19.2239 23.5705 19.2521 23.469 19.2521H16.7522V27.407C16.7522 27.5311 16.7184 27.6382 16.6507 27.7285C16.583 27.8187 16.459 27.8977 16.2785 27.9653C16.1093 28.0217 15.8837 28.0668 15.6017 28.1007C15.3197 28.1345 14.9588 28.1514 14.5189 28.1514C14.0903 28.1514 13.7294 28.1345 13.4361 28.1007C13.1541 28.0668 12.9285 28.0217 12.7593 27.9653C12.5902 27.8977 12.4661 27.8187 12.3871 27.7285C12.3195 27.6382 12.2856 27.5311 12.2856 27.407V7.56111C12.2856 7.06482 12.4097 6.70952 12.6578 6.49521C12.9173 6.26963 13.2331 6.15683 13.6053 6.15683H23.9089C24.0104 6.15683 24.1007 6.19067 24.1796 6.25835C24.2586 6.31474 24.3263 6.41626 24.3826 6.56289C24.4503 6.69824 24.4954 6.88435 24.518 7.12121C24.5518 7.35808 24.5688 7.6457 24.5688 7.98408Z" fill="black"/>
<path d="M39.8465 27.5254C39.8465 27.6834 39.7902 27.8074 39.6774 27.8977C39.5646 27.9879 39.3841 28.0499 39.136 28.0838C38.8991 28.1289 38.5438 28.1514 38.0701 28.1514C37.5625 28.1514 37.1903 28.1289 36.9534 28.0838C36.7278 28.0499 36.5643 27.9879 36.4628 27.8977C36.3725 27.8074 36.3274 27.6834 36.3274 27.5254V26.3242C35.7071 26.9897 34.9965 27.5085 34.1956 27.8807C33.4061 28.253 32.5263 28.4391 31.5563 28.4391C30.7554 28.4391 30.0167 28.3319 29.3399 28.1176C28.6744 27.9146 28.0935 27.61 27.5972 27.204C27.1122 26.7866 26.7344 26.2734 26.4637 25.6644C26.193 25.0553 26.0576 24.3447 26.0576 23.5326C26.0576 22.6528 26.2268 21.8914 26.5652 21.2485C26.9148 20.5943 27.4281 20.0586 28.1048 19.6412C28.7928 19.2126 29.6444 18.8968 30.6596 18.6938C31.6747 18.4907 32.8534 18.3892 34.1956 18.3892H35.6676V17.4756C35.6676 17.0019 35.6168 16.5902 35.5153 16.2405C35.4251 15.8796 35.2672 15.5807 35.0416 15.3438C34.8273 15.1069 34.534 14.9321 34.1618 14.8193C33.8009 14.7065 33.3497 14.6501 32.8083 14.6501C32.0977 14.6501 31.4604 14.7291 30.8964 14.887C30.3438 15.0449 29.8531 15.2197 29.4245 15.4115C28.9959 15.6032 28.6349 15.7781 28.3417 15.936C28.0597 16.0939 27.8285 16.1728 27.648 16.1728C27.5239 16.1728 27.4111 16.1334 27.3096 16.0544C27.2194 15.9755 27.1404 15.8627 27.0728 15.716C27.0164 15.5694 26.9712 15.3889 26.9374 15.1746C26.9036 14.9603 26.8867 14.7235 26.8867 14.464C26.8867 14.1144 26.9148 13.838 26.9712 13.635C27.0276 13.432 27.1348 13.2515 27.2927 13.0936C27.4506 12.9244 27.727 12.7439 28.1217 12.5522C28.5165 12.3492 28.979 12.1631 29.5091 11.9939C30.0392 11.8247 30.6145 11.6893 31.2348 11.5878C31.8665 11.475 32.515 11.4186 33.1805 11.4186C34.3648 11.4186 35.3743 11.5371 36.209 11.7739C37.0549 11.9995 37.7486 12.3548 38.29 12.8398C38.8314 13.3135 39.2262 13.9283 39.4743 14.684C39.7225 15.4397 39.8465 16.3364 39.8465 17.3741V27.5254ZM35.6676 21.0624H34.0434C33.3553 21.0624 32.7688 21.1132 32.2838 21.2147C31.7988 21.3162 31.404 21.4685 31.0995 21.6715C30.7949 21.8745 30.5693 22.1227 30.4227 22.4159C30.2874 22.6979 30.2197 23.025 30.2197 23.3972C30.2197 24.0289 30.4171 24.5252 30.8118 24.8861C31.2179 25.247 31.7762 25.4275 32.4868 25.4275C33.0846 25.4275 33.6317 25.2752 34.128 24.9707C34.6355 24.6661 35.1487 24.2206 35.6676 23.6341V21.0624Z" fill="black"/>
<path d="M59.3033 19.7258C59.3033 21.0681 59.1567 22.2749 58.8634 23.3465C58.5702 24.418 58.1472 25.3316 57.5945 26.0873C57.0418 26.843 56.3594 27.4239 55.5473 27.83C54.7465 28.236 53.8329 28.4391 52.8064 28.4391C52.2989 28.4391 51.8252 28.3883 51.3853 28.2868C50.9454 28.1966 50.5224 28.0443 50.1163 27.83C49.7216 27.6157 49.3268 27.345 48.932 27.0179C48.5485 26.6908 48.1537 26.296 47.7477 25.8335V27.4747C47.7477 27.5988 47.7139 27.7059 47.6462 27.7961C47.5898 27.8751 47.4883 27.9428 47.3416 27.9992C47.2063 28.0556 47.0202 28.095 46.7833 28.1176C46.5464 28.1402 46.2588 28.1514 45.9204 28.1514C45.5708 28.1514 45.2775 28.1402 45.0407 28.1176C44.8151 28.095 44.629 28.0556 44.4823 27.9992C44.347 27.9428 44.2511 27.8751 44.1947 27.7961C44.1383 27.7059 44.1101 27.5988 44.1101 27.4747V5.22629C44.1101 5.1135 44.144 5.01199 44.2116 4.92175C44.2793 4.83152 44.3921 4.7582 44.55 4.70181C44.7192 4.63413 44.9391 4.58337 45.2099 4.54954C45.4806 4.5157 45.8246 4.49878 46.2419 4.49878C46.6592 4.49878 47.0033 4.5157 47.274 4.54954C47.5447 4.58337 47.759 4.63413 47.9169 4.70181C48.0861 4.7582 48.2045 4.83152 48.2722 4.92175C48.3399 5.01199 48.3737 5.1135 48.3737 5.22629V13.5673C48.7572 13.1838 49.1407 12.8567 49.5242 12.586C49.9077 12.3153 50.2912 12.0954 50.6747 11.9262C51.0582 11.7457 51.4529 11.616 51.859 11.5371C52.265 11.4581 52.6937 11.4186 53.1448 11.4186C54.2615 11.4186 55.2089 11.6442 55.9872 12.0954C56.7655 12.5353 57.3971 13.1331 57.8821 13.8888C58.3784 14.6445 58.7394 15.5299 58.9649 16.5451C59.1905 17.5489 59.3033 18.6092 59.3033 19.7258ZM54.8875 20.0304C54.8875 19.3874 54.8367 18.7671 54.7352 18.1693C54.645 17.5715 54.4814 17.0413 54.2446 16.5789C54.0077 16.1164 53.6975 15.7499 53.314 15.4792C52.9418 15.1972 52.4681 15.0562 51.8928 15.0562C51.6108 15.0562 51.3345 15.0957 51.0638 15.1746C50.7931 15.2536 50.5111 15.3889 50.2179 15.5807C49.9359 15.7724 49.6426 16.0206 49.3381 16.3251C49.0335 16.6297 48.7121 17.0075 48.3737 17.4587V22.4667C48.9715 23.2337 49.5411 23.8202 50.0825 24.2263C50.6352 24.621 51.2104 24.8184 51.8082 24.8184C52.3609 24.8184 52.829 24.6774 53.2125 24.3954C53.596 24.1135 53.9118 23.7469 54.16 23.2957C54.4194 22.8445 54.6055 22.3313 54.7183 21.7561C54.8311 21.1808 54.8875 20.6056 54.8875 20.0304Z" fill="black"/>
<line x1="9.89999" y1="1" x2="1.33077e-05" y2="1" stroke="#136EF5" stroke-width="2"/>
<line x1="4.95004" y1="6.50006" x2="5.24412e-05" y2="6.50006" stroke="#136EF5" stroke-width="2"/>
<line x1="4.95004" y1="12" x2="5.24412e-05" y2="12" stroke="#136EF5" stroke-width="2"/>
<line x1="8.25" y1="17.5" x2="1.71552e-05" y2="17.5" stroke="#136EF5" stroke-width="2"/>
<line x1="4.95004" y1="23" x2="5.24412e-05" y2="23" stroke="#136EF5" stroke-width="2"/>
<line x1="4.95004" y1="28.5" x2="5.24412e-05" y2="28.5" stroke="#136EF5" stroke-width="2"/>
<line x1="9.89999" y1="34" x2="1.33514e-05" y2="34" stroke="#136EF5" stroke-width="2"/>
</svg>
